<svg width="30" height="30" viewBox="0 0 30 30" fill="none" xmlns="http://www.w3.org/2000/svg">
<path d="M15.4201 8.81127C16.3466 8.81127 17.508 8.18489 18.1997 7.3497C18.8261 6.59282 19.2828 5.53579 19.2828 4.47876C19.2828 4.33521 19.2698 4.19167 19.2437 4.07422C18.2127 4.11337 16.973 4.76586 16.2292 5.64019C15.6419 6.30572 15.1069 7.3497 15.1069 8.41978C15.1069 8.57638 15.133 8.73298 15.146 8.78517C15.2113 8.79822 15.3157 8.81127 15.4201 8.81127ZM12.1577 24.6015C13.4235 24.6015 13.9846 23.7532 15.5636 23.7532C17.1688 23.7532 17.5211 24.5754 18.9305 24.5754C20.3137 24.5754 21.2403 23.2965 22.1146 22.0437C23.0933 20.6082 23.4979 19.1989 23.524 19.1336C23.4326 19.1075 20.7835 18.0244 20.7835 14.9838C20.7835 12.3478 22.8715 11.1602 22.9889 11.0689C21.6057 9.08532 19.5047 9.03312 18.9305 9.03312C17.3776 9.03312 16.1117 9.9727 15.3157 9.9727C14.4544 9.9727 13.3191 9.08532 11.975 9.08532C9.41721 9.08532 6.82031 11.1994 6.82031 15.1926C6.82031 17.672 7.78599 20.295 8.97352 21.9915C9.9914 23.427 10.8788 24.6015 12.1577 24.6015Z" fill="black"/>
</svg>
