<svg width="15" height="14" viewBox="0 0 15 14" fill="none" xmlns="http://www.w3.org/2000/svg">
<path d="M1.3023 13.5707C1.33625 13.6045 1.37655 13.6314 1.42089 13.6497C1.46522 13.6679 1.51273 13.6773 1.56069 13.6772M1.3023 13.5707L2.70995 9.5496C2.27808 8.70554 2.05221 7.77077 2.05138 6.82189L2.05138 6.82157C2.05316 5.23089 2.68585 3.70587 3.81063 2.58109C4.93541 1.45631 6.46043 0.823627 8.05111 0.82184L8.05147 0.82184C9.64215 0.823627 11.1672 1.45631 12.2919 2.58109C13.4167 3.70587 14.0494 5.23089 14.0512 6.82157L14.0512 6.82193C14.0494 8.41261 13.4167 9.93763 12.2919 11.0624C11.1672 12.1872 9.64215 12.8199 8.05147 12.8217L8.05118 12.8217C7.10226 12.821 6.16742 12.5952 5.32342 12.1631L1.71577 13.8123L1.70235 13.8184L1.68804 13.822C1.64649 13.8324 1.60382 13.8377 1.56097 13.8378C1.56094 13.8378 1.5609 13.8378 1.56086 13.8378L1.56069 13.6772M1.3023 13.5707C1.25778 13.526 1.22557 13.4707 1.20881 13.4099M1.3023 13.5707L1.20881 13.4099M1.56069 13.6772C1.59046 13.6772 1.62012 13.6735 1.64901 13.6663L1.56069 13.6772ZM1.20881 13.4099C1.19206 13.3491 1.19132 13.2851 1.20668 13.2239L1.20881 13.4099ZM5.3773 11.0706L5.37505 11.0706C5.33393 11.0711 5.29301 11.0764 5.25312 11.0864L5.23697 11.0904L5.22199 11.0977L2.41333 12.4633L3.77898 9.65471L3.78629 9.63967L3.79034 9.62345C3.82289 9.49335 3.80447 9.35572 3.73884 9.23876L3.73876 9.23862C3.32366 8.50054 3.1046 7.66843 3.10246 6.82164C3.10403 5.50964 3.62592 4.25183 4.55364 3.32411C5.48139 2.39635 6.73925 1.87447 8.05128 1.87292C9.36332 1.87447 10.6212 2.39635 11.5489 3.32411C12.4767 4.25186 12.9986 5.50972 13.0001 6.82175C12.9986 8.13379 12.4767 9.39164 11.5489 10.3194C10.6212 11.2472 9.36332 11.769 8.05128 11.7706C7.20477 11.7696 6.37262 11.5518 5.63423 11.1378L5.63387 11.1376C5.55541 11.0939 5.46712 11.0708 5.3773 11.0706Z" fill="black" stroke="black" stroke-width="0.321164"/>
</svg>
