<svg width="30" height="30" viewBox="0 0 30 30" fill="none" xmlns="http://www.w3.org/2000/svg">
<g clip-path="url(#clip0_3615_10881)">
<path fill-rule="evenodd" clip-rule="evenodd" d="M29.4007 14.9271C29.4007 7.00454 23.0158 0.582031 15.1397 0.582031C7.26354 0.582031 0.878662 7.00454 0.878662 14.9271C0.878662 22.0872 6.09371 28.0218 12.9114 29.0979V19.0737H9.29044V14.9271H12.9114V11.7667C12.9114 8.17148 15.0405 6.18558 18.298 6.18558C19.8583 6.18558 21.4903 6.46576 21.4903 6.46576V9.99599H19.692C17.9205 9.99599 17.368 11.1018 17.368 12.2362V14.9271H21.3232L20.6909 19.0737H17.368V29.0979C24.1857 28.0218 29.4007 22.0872 29.4007 14.9271Z" fill="#1877F2"/>
</g>
<defs>
<clipPath id="clip0_3615_10881">
<rect width="28.5221" height="28.5221" fill="white" transform="translate(0.878662 0.582031)"/>
</clipPath>
</defs>
</svg>
