<svg width="30" height="29" viewBox="0 0 30 29" fill="none" xmlns="http://www.w3.org/2000/svg">
<path fill-rule="evenodd" clip-rule="evenodd" d="M25.4076 14.5511C25.4076 13.7926 25.3395 13.0634 25.2131 12.3633H15.1396V16.5006H20.8959C20.648 17.8376 19.8944 18.9704 18.7616 19.7288V22.4124H22.2183C24.2408 20.5504 25.4076 17.8084 25.4076 14.5511Z" fill="#4285F4"/>
<path fill-rule="evenodd" clip-rule="evenodd" d="M15.1397 25.0034C18.0275 25.0034 20.4487 24.0457 22.2183 22.4121L18.7617 19.7285C17.8039 20.3702 16.5787 20.7494 15.1397 20.7494C12.3539 20.7494 9.99598 18.8679 9.1549 16.3398H5.58154V19.111C7.34148 22.6066 10.9586 25.0034 15.1397 25.0034Z" fill="#34A853"/>
<path fill-rule="evenodd" clip-rule="evenodd" d="M9.15485 16.3395C8.94093 15.6977 8.81939 15.0122 8.81939 14.3073C8.81939 13.6023 8.94093 12.9168 9.15485 12.2751V9.50391H5.58149C4.85709 10.9478 4.44385 12.5814 4.44385 14.3073C4.44385 16.0332 4.85709 17.6667 5.58149 19.1107L9.15485 16.3395Z" fill="#FBBC05"/>
<path fill-rule="evenodd" clip-rule="evenodd" d="M15.1397 7.86728C16.71 7.86728 18.1199 8.40693 19.2284 9.46679L22.2961 6.39904C20.4438 4.67313 18.0227 3.61328 15.1397 3.61328C10.9586 3.61328 7.34148 6.01011 5.58154 9.50568L9.1549 12.2769C9.99598 9.74876 12.3539 7.86728 15.1397 7.86728Z" fill="#EA4335"/>
</svg>
