<svg width="34" height="33" viewBox="0 0 34 33" fill="none" xmlns="http://www.w3.org/2000/svg">
<path fill-rule="evenodd" clip-rule="evenodd" d="M18.1165 0.724862L32.2831 8.64153C33.1301 9.06501 33.6651 9.93066 33.6651 10.8776V13.2792C33.6651 14.4298 32.7325 15.3626 31.5818 15.3626H30.3318V28.696H31.9985C32.919 28.696 33.6651 29.4421 33.6651 30.3626C33.6651 31.2831 32.919 32.0293 31.9985 32.0293H1.99845C1.07799 32.0293 0.331787 31.2831 0.331787 30.3626C0.331787 29.4421 1.07799 28.696 1.99845 28.696H3.66512V15.3626H2.41512C1.26452 15.3626 0.331787 14.4298 0.331787 13.2792V10.8776C0.331787 10.0096 0.78135 9.20985 1.50864 8.7564L15.8805 0.724862C16.5843 0.372962 17.4126 0.372962 18.1165 0.724862ZM25.3318 15.3626H8.66512V28.696H11.9985V18.696H15.3318V28.696H18.6651V18.696H21.9985V28.696H25.3318V15.3626ZM16.9985 7.02933C16.078 7.02933 15.3318 7.77553 15.3318 8.696C15.3318 9.61648 16.078 10.3627 16.9985 10.3627C17.919 10.3627 18.6651 9.61648 18.6651 8.696C18.6651 7.77553 17.919 7.02933 16.9985 7.02933Z" fill="#ED5565"/>
</svg>
