<svg xmlns="http://www.w3.org/2000/svg" width="404" height="105" viewBox="0 0 404 105" fill="none">
<g clip-path="url(#clip0_1069_20043)">
<path d="M41.1718 20.2284C41.236 9.18513 32.3358 0.180709 21.2925 0.116458C10.2492 0.0522075 1.24479 8.95245 1.18054 19.9957C1.12247 29.976 8.38641 38.2909 17.9369 39.8466L18.0182 25.8739L12.9412 25.8443L12.9748 20.0643L18.0518 20.0939L18.0775 15.6886C18.1066 10.6772 21.108 7.92643 25.6754 7.95301C27.8624 7.96573 30.1491 8.36959 30.1491 8.36959L30.1204 13.2904L27.5991 13.2757C25.1153 13.2613 24.3315 14.7982 24.3223 16.3811L24.3005 20.1302L29.8461 20.1625L28.926 25.9373L24.2668 25.9102L24.1855 39.8829C33.7535 38.4385 41.1137 30.2086 41.1718 20.2284Z" fill="black"/>
</g>
<g clip-path="url(#clip1_1069_20043)">
<path d="M80.319 36.7035C95.4063 36.7913 103.734 24.3366 103.797 13.4975C103.799 13.1461 103.793 12.7867 103.779 12.4351C105.392 11.2832 106.786 9.85294 107.896 8.21144C106.397 8.8681 104.806 9.2934 103.179 9.47282C104.897 8.45663 106.189 6.85205 106.814 4.95653C105.198 5.9016 103.432 6.56463 101.594 6.9172C100.364 5.5952 98.7331 4.71514 96.9531 4.41306C95.173 4.11098 93.343 4.40372 91.7459 5.24601C90.1489 6.0883 88.8738 7.43324 88.1178 9.07288C87.3619 10.7125 87.1671 12.5555 87.5636 14.317C84.3035 14.1344 81.1182 13.2687 78.2142 11.7761C75.3101 10.2834 72.7522 8.19717 70.7062 5.65254C69.6483 7.45226 69.3154 9.58726 69.7751 11.6236C70.2347 13.66 71.4526 15.4449 73.181 16.6157C71.8786 16.5667 70.6065 16.2086 69.4698 15.5708L69.4692 15.6724C69.457 17.5674 70.1015 19.4082 71.293 20.8819C72.4846 22.3555 74.1497 23.371 76.0053 23.7558C74.7967 24.0789 73.5299 24.1197 72.303 23.8748C72.8177 25.5077 73.8294 26.939 75.1968 27.9692C76.5642 28.9994 78.2192 29.5769 79.9306 29.6213C77.0114 31.887 73.4146 33.1042 69.7194 33.0769C69.0641 33.072 68.4097 33.0281 67.7596 32.9452C71.4996 35.3753 75.8589 36.6799 80.319 36.7035Z" fill="black"/>
</g>
<g clip-path="url(#clip2_1069_20043)">
<path d="M154.575 4.49177C159.918 4.52285 160.551 4.54996 162.651 4.65592C164.603 4.7532 165.656 5.08738 166.357 5.36485C167.285 5.72956 167.954 6.17087 168.645 6.87007C169.344 7.57713 169.77 8.24355 170.123 9.17512C170.393 9.87968 170.715 10.9439 170.789 12.8892C170.871 14.9987 170.89 15.6315 170.859 20.9663C170.828 26.3089 170.801 26.9414 170.695 29.0419C170.598 30.9941 170.264 32.0467 169.986 32.7481C169.622 33.6755 169.18 34.3446 168.481 35.0358C167.774 35.7346 167.108 36.1604 166.176 36.5143C165.471 36.7836 164.407 37.1054 162.462 37.18C160.352 37.2615 159.72 37.2812 154.385 37.2502C149.042 37.2191 148.41 37.192 146.309 37.086C144.357 36.9888 143.304 36.6546 142.603 36.3771C141.676 36.0124 141.007 35.5711 140.315 34.8719C139.617 34.1648 139.191 33.4984 138.837 32.5668C138.568 31.8623 138.246 30.7981 138.171 28.8527C138.09 26.7433 138.07 26.1105 138.101 20.7757C138.132 15.4331 138.159 14.8006 138.265 12.7C138.362 10.7478 138.697 9.69527 138.974 8.99389C139.339 8.0665 139.78 7.39732 140.479 6.7062C141.186 6.00732 141.853 5.58159 142.784 5.2277C143.489 4.95841 144.553 4.63654 146.498 4.56194C148.6 4.48043 149.233 4.46068 154.575 4.49177ZM154.596 0.890994C149.168 0.859411 148.488 0.87889 146.355 0.960213C144.23 1.04158 142.768 1.37676 141.499 1.86148C140.176 2.36931 139.056 3.04235 137.94 4.15284C136.817 5.25547 136.13 6.36846 135.607 7.67767C135.108 8.94797 134.756 10.3988 134.65 12.5228C134.543 14.6624 134.516 15.3418 134.484 20.7703C134.453 26.1988 134.472 26.8784 134.554 29.0113C134.635 31.1364 134.97 32.599 135.455 33.8672C135.963 35.1903 136.636 36.3111 137.746 37.4268C138.849 38.5424 139.962 39.2362 141.271 39.7515C142.542 40.251 143.992 40.6032 146.116 40.7092C148.248 40.8154 148.928 40.8428 154.356 40.8744C159.784 40.9059 160.464 40.8865 162.597 40.8051C164.722 40.7238 166.185 40.3886 167.453 39.9039C168.768 39.4038 169.889 38.723 171.005 37.6203C172.12 36.5176 172.814 35.4047 173.329 34.0954C173.829 32.8251 174.181 31.3743 174.287 29.2503C174.393 27.1185 174.421 26.4391 174.452 21.0106C174.484 15.5821 174.464 14.9024 174.383 12.7696C174.302 10.6445 173.966 9.18186 173.482 7.91365C172.997 6.58295 172.324 5.46206 171.214 4.34643C170.111 3.23084 168.998 2.537 167.689 2.02166C166.419 1.52217 164.968 1.17005 162.844 1.06396C160.704 0.949964 160.025 0.922578 154.596 0.890994Z" fill="black"/>
<path d="M154.54 10.6154C148.869 10.5824 144.242 15.1562 144.209 20.8268C144.176 26.4975 148.75 31.1248 154.42 31.1578C160.091 31.1908 164.718 26.617 164.751 20.9464C164.784 15.2757 160.21 10.6484 154.54 10.6154ZM154.441 27.5492C150.762 27.5278 147.796 24.5267 147.817 20.8478C147.839 17.169 150.84 14.2026 154.519 14.224C158.198 14.2454 161.164 17.2465 161.143 20.9254C161.121 24.6042 158.12 27.5706 154.441 27.5492Z" fill="black"/>
<path d="M167.618 10.2854C167.61 11.6133 166.526 12.6771 165.206 12.6694C163.878 12.6617 162.814 11.5776 162.822 10.2575C162.829 8.9297 163.914 7.86589 165.234 7.87357C166.554 7.88125 167.625 8.96541 167.618 10.2854Z" fill="black"/>
</g>
<g clip-path="url(#clip3_1069_20043)">
<path d="M238.284 1.37939L204.205 1.18112C202.573 1.17162 201.245 2.45272 201.236 4.04612L201.037 38.2652C201.028 39.8586 202.34 41.1628 203.973 41.1723L238.051 41.3706C239.684 41.3801 241.019 40.0912 241.028 38.5056L241.227 4.27879C241.237 2.68539 239.916 1.38889 238.284 1.37939ZM212.919 35.3114L206.983 35.2769L207.094 16.1873L213.03 16.2219L212.919 35.3114ZM210.077 13.6036C208.172 13.5925 206.642 12.0448 206.653 10.1468C206.664 8.2488 208.211 6.71903 210.117 6.73011C212.015 6.74116 213.545 8.28883 213.534 10.1869C213.523 12.0771 211.975 13.6146 210.077 13.6036ZM235.133 35.4407L229.205 35.4062L229.259 26.127C229.272 23.9165 229.249 21.0653 226.203 21.0476C223.118 21.0297 222.635 23.4405 222.62 25.9321L222.566 35.3675L216.645 35.3331L216.756 16.2435L222.442 16.2766L222.427 18.8854L222.505 18.8859C223.303 17.3908 225.249 15.8165 228.131 15.8333C234.138 15.8682 235.224 19.8269 235.194 24.9664L235.133 35.4407Z" fill="black"/>
</g>
<g clip-path="url(#clip4_1069_20043)">
<path d="M296.353 1.71692L289.613 1.67771L289.455 28.9181C289.436 32.1638 286.828 34.8148 283.602 34.796C280.377 34.7773 277.8 32.0961 277.819 28.8504C277.837 25.6627 280.387 23.0693 283.498 22.9715L283.538 16.1325C276.683 16.2084 271.12 21.7982 271.079 28.8112C271.038 35.8822 276.65 41.5949 283.62 41.6354C290.59 41.676 296.269 35.971 296.31 28.9579L296.391 14.99C298.915 16.8595 302.019 17.9788 305.302 18.0559L305.342 11.2167C300.274 11.0134 296.323 6.81725 296.353 1.71692Z" fill="black"/>
</g>
<g clip-path="url(#clip5_1069_20043)">
<path d="M374.08 14.166C374.08 14.166 373.706 11.4066 372.51 10.1889C370.996 8.58662 369.293 8.56891 368.513 8.47063C362.923 8.03193 354.526 7.98308 354.526 7.98308L354.511 7.98299C354.511 7.98299 346.114 7.93414 340.519 8.30776C339.737 8.39695 338.035 8.39485 336.502 9.97939C335.292 11.1831 334.894 13.938 334.894 13.938C334.894 13.938 334.469 17.1772 334.45 20.4108L334.432 23.4414C334.413 26.6751 334.793 29.9189 334.793 29.9189C334.793 29.9189 335.167 32.6783 336.355 33.896C337.869 35.4982 339.869 35.4552 340.758 35.6322C343.959 35.9555 354.355 36.1097 354.355 36.1097C354.355 36.1097 362.759 36.1429 368.354 35.7771C369.136 35.6879 370.838 35.69 372.371 34.1055C373.581 32.9018 373.987 30.1469 373.987 30.1469C373.987 30.1469 374.404 26.9156 374.423 23.6741L374.441 20.6435C374.46 17.4098 374.08 14.166 374.08 14.166ZM350.274 27.2126L350.34 15.9729L361.109 21.6751L350.274 27.2126Z" fill="black"/>
</g>
<g clip-path="url(#clip6_1069_20043)">


</g>
<defs>
<clipPath id="clip0_1069_20043">
<rect width="39.9919" height="39.9919" fill="white" transform="translate(1.29688) rotate(0.333348)"/>
</clipPath>
<clipPath id="clip1_1069_20043">
<rect width="39.9919" height="39.9919" fill="white" transform="translate(67.949 0.387817) rotate(0.333348)"/>
</clipPath>
<clipPath id="clip2_1069_20043">
<rect width="39.9919" height="39.9919" fill="white" transform="translate(134.601 0.775635) rotate(0.333348)"/>
</clipPath>
<clipPath id="clip3_1069_20043">
<rect width="39.9919" height="39.9919" fill="white" transform="translate(201.253 1.16333) rotate(0.333348)"/>
</clipPath>
<clipPath id="clip4_1069_20043">
<rect width="39.9919" height="39.9919" fill="white" transform="translate(267.905 1.55115) rotate(0.333348)"/>
</clipPath>
<clipPath id="clip5_1069_20043">
<rect width="39.9919" height="39.9919" fill="white" transform="translate(334.557 1.93896) rotate(0.333348)"/>
</clipPath>
<clipPath id="clip6_1069_20043">
<rect width="232" height="51" fill="white" transform="translate(85 54.0011)"/>
</clipPath>
</defs>
</svg>