<svg width="15" height="14" viewBox="0 0 15 14" fill="none" xmlns="http://www.w3.org/2000/svg">
<path d="M14.1022 10.108H12.1616C11.3636 10.108 11.2232 9.58833 11.2034 9.32757V7.6096C11.2034 6.887 10.5293 6.82505 10.334 6.8221H9.88958V6.82187H8.45259C7.64934 6.82187 7.58199 6.19959 7.57798 6.03732V4.37382C7.57798 3.66393 7.0111 3.55069 6.74618 3.53616H6.29047H4.85474C3.95183 3.53616 3.95233 2.78112 3.95233 2.78112V0.939913C3.9363 0.720911 3.81086 0.25 3.02138 0.25H1.13894C0.410557 0.25 0.331935 0.730896 0.326927 0.906552V12.5575C0.326927 12.5575 0.284861 13.3697 1.25713 13.3697H13.8425C14.63 13.3697 14.7982 12.968 14.8285 12.7236V10.9902C14.8285 10.2914 14.3813 10.1362 14.1022 10.108ZM13.9116 11.9438C13.9068 12.1004 13.8272 12.5511 13.039 12.5511H2.11346C1.48473 12.5511 1.33024 12.2232 1.29869 11.9942V11.7793V11.007V10.3182V9.91604V8.35398V7.63229V7.21267V6.69229V4.37563V4.24128V1.78392C1.29869 1.18933 1.70733 1.08357 1.92166 1.06836H2.43822C2.58995 1.07449 3.07671 1.15528 3.07671 1.94119V3.07978C3.07897 3.25815 3.14757 4.23674 4.40128 4.24105H5.71057C5.91564 4.24718 6.57767 4.32775 6.57767 5.12659V6.37456C6.59645 6.72451 6.77999 7.63206 8.17015 7.63206H9.19125C9.19125 7.63206 10.1335 7.6273 10.1335 8.56367V9.66345V9.67865C10.136 9.82708 10.2071 11.0151 11.8654 11.0067H13.0057C13.1892 11.0106 13.9104 11.068 13.9119 11.7493V11.9438H13.9116Z" fill="#6B6F7B"/>
</svg>
