<svg width="15" height="15" viewBox="0 0 15 15" fill="none" xmlns="http://www.w3.org/2000/svg">
<path d="M4.39458 10.6034C6.51348 12.7223 9.09427 14.3573 11.1985 14.3573C12.1443 14.3573 12.9728 14.0274 13.64 13.2942C14.0285 12.8616 14.2705 12.3557 14.2705 11.8572C14.2705 11.4906 14.1312 11.1387 13.7793 10.8894L11.5358 9.29103C11.1911 9.05642 10.9052 8.93911 10.6413 8.93911C10.304 8.93911 10.0107 9.12974 9.67346 9.45968L9.15292 9.97289C9.07228 10.0535 8.96961 10.0902 8.87429 10.0902C8.75701 10.0902 8.65434 10.0462 8.5737 10.0096C8.12646 9.76762 7.34931 9.10043 6.62344 8.38191C5.90495 7.66339 5.23776 6.88621 5.00314 6.43165C4.95913 6.351 4.9225 6.24836 4.9225 6.13838C4.9225 6.04306 4.95181 5.94774 5.03245 5.8671L5.54567 5.33189C5.8756 4.99463 6.06624 4.70136 6.06624 4.36408C6.06624 4.10015 5.94893 3.8142 5.70699 3.46962L4.13065 1.24808C3.87404 0.896159 3.51479 0.742188 3.11885 0.742188C2.63495 0.742188 2.12905 0.962133 1.70383 1.38006C0.992631 2.06192 0.677368 2.90507 0.677368 3.83619C0.677368 5.94042 2.28302 8.49187 4.39458 10.6034Z" fill="black"/>
</svg>
